<svg xmlns="http://www.w3.org/2000/svg" viewBox="0 0 341 303" width="341" height="303">
	<style>
		tspan { white-space:pre }
		.shp0 { fill: #301e0c } 
	</style>
	<g id="flower">
		<path id="Layer" class="shp0" d="M130.72 133.17C134.4 114.8 134.4 105.98 123.37 94.95C112.35 83.19 101.32 86.87 88.83 65.55C94.71 91.28 111.61 89.07 120.43 103.04C129.25 117 129.99 132.44 130.72 133.17ZM166 111.86C184.38 106.71 190.99 102.3 195.4 86.87C200.55 70.7 190.99 63.35 203.49 42.03C184.38 60.41 193.93 73.64 186.58 88.34C179.23 103.04 166 111.12 166 111.86ZM202.75 131.7C216.72 144.2 224.07 147.87 239.5 144.2C255.67 140.52 257.88 128.76 282.13 128.03C257.14 121.41 250.53 136.11 233.62 136.85C217.45 138.32 203.49 130.97 202.75 131.7L202.75 131.7ZM205.69 175.8C201.28 194.18 201.28 202.26 213.04 214.02C224.07 225.78 235.09 222.11 247.59 242.69C240.97 217.7 224.8 219.17 215.98 205.2C207.16 191.97 206.43 176.54 205.69 175.8L205.69 175.8ZM172.62 197.12C154.98 203 147.63 206.67 143.22 222.11C138.81 238.28 147.63 245.63 135.87 266.94C154.24 248.57 144.69 235.34 152.04 220.64C159.39 206.67 172.62 197.85 172.62 197.12ZM139.54 178.01C125.58 165.51 118.23 161.1 102.79 164.78C86.63 169.19 84.42 180.21 60.16 180.95C85.15 187.56 91.77 172.86 108.67 172.13C124.84 171.39 138.07 178.01 139.54 178.01L139.54 178.01Z" />
		<path id="Layer" class="shp0" d="M194.67 118.47C231.42 89.07 227.74 47.18 226.27 30.27C224.07 15.57 232.15 7.49 232.15 7.49C232.15 7.49 219.66 10.43 214.51 13.37C209.37 16.31 184.38 28.8 169.68 50.85C154.24 72.17 164.53 105.24 159.39 119.21C154.24 133.91 134.4 140.52 134.4 140.52C134.4 140.52 148.36 132.44 151.3 117.74C154.24 103.04 140.28 79.52 156.45 52.32C173.35 25.13 217.45 -1.33 240.97 0.14C252 0.87 236.56 3.08 233.62 16.31C230.68 28.8 238.03 58.2 231.42 80.99C224.07 107.45 193.93 119.21 194.67 118.47L194.67 118.47ZM213.04 155.96C257.14 173.6 291.69 149.34 305.65 139.05C317.41 130.23 328.44 133.17 328.44 133.17C328.44 133.17 319.62 124.35 314.47 121.41C309.33 117.74 285.07 103.04 259.35 100.83C233.62 98.63 209.37 123.62 194.67 125.82C179.23 128.76 163.8 115.53 163.8 115.53C163.8 115.53 177.76 122.88 191.73 118.47C205.69 113.33 219.66 89.81 251.26 90.54C282.87 91.28 328.44 116.27 338.73 137.58C343.87 147.87 334.32 135.38 321.09 139.05C308.59 143.46 287.28 163.31 263.76 169.19C237.3 176.54 212.31 155.96 213.04 155.96L213.04 155.96ZM187.32 189.77C194.67 236.07 232.89 254.45 248.32 261.06C261.55 266.94 264.49 277.97 264.49 277.97C264.49 277.97 268.17 265.47 268.17 259.59C268.17 253.71 269.64 225.78 258.61 202.26C247.59 178.74 213.78 169.92 204.22 158.16C194.67 147.14 198.34 126.56 198.34 126.56C198.34 126.56 198.34 142.73 209.37 152.28C220.39 161.84 248.32 161.84 263.02 189.77C278.46 217.7 279.93 269.15 266.7 288.99C260.08 298.55 265.96 283.85 255.67 274.29C246.85 266.21 218.19 257.39 201.28 240.48C182.17 220.64 187.32 189.03 187.32 189.77L187.32 189.77ZM145.42 185.36C108.67 214.02 111.61 256.65 113.82 272.82C115.29 288.26 107.2 296.34 107.2 296.34C107.2 296.34 119.7 293.4 124.84 290.46C129.99 286.79 155.71 274.29 170.41 252.98C185.11 231.66 175.56 197.85 180.7 183.89C185.85 169.19 204.96 162.57 204.96 162.57C204.96 162.57 191.73 171.39 188.79 185.36C185.85 200.06 199.08 223.58 182.91 250.77C166.74 277.97 122.64 305.16 99.12 302.96C87.36 302.22 102.79 300.02 105.73 286.79C108.67 274.29 102.06 245.63 108.67 222.11C115.29 196.38 145.42 183.89 145.42 185.36L145.42 185.36ZM127.05 147.87C83.68 130.97 49.14 154.49 35.17 164.78C23.41 173.6 12.39 170.66 12.39 170.66C12.39 170.66 21.21 180.21 26.35 183.15C31.5 186.09 55.02 201.53 81.48 203.73C107.2 205.94 131.46 180.21 146.16 178.01C160.86 175.07 177.03 189.03 177.03 189.03C177.03 189.03 162.33 180.95 148.36 186.09C134.4 190.5 121.17 214.02 89.56 213.29C57.96 212.55 12.39 188.3 2.1 166.98C-3.05 156.69 6.51 169.19 19.74 164.78C32.23 161.1 53.55 140.52 76.33 134.64C102.79 128.03 128.52 147.87 127.05 147.87L127.05 147.87ZM152.04 114.06C145.42 67.76 107.2 49.38 91.77 42.77C77.8 36.89 74.86 25.86 74.86 25.86C74.86 25.86 71.19 38.36 71.19 44.24C71.19 50.12 69.72 78.05 80.74 102.3C91.77 125.82 125.58 133.91 135.13 145.67C145.42 157.43 141.75 177.27 141.75 177.27C141.75 177.27 141.01 161.1 129.99 151.55C118.96 141.99 91.77 141.99 76.33 114.06C60.9 86.13 59.43 34.68 72.66 14.84C79.27 5.28 73.39 19.98 83.68 29.54C93.24 37.62 121.17 46.44 138.07 63.35C157.18 83.19 152.77 114.8 152.04 114.06L152.04 114.06Z" />
	</g>
</svg>