<svg xmlns="http://www.w3.org/2000/svg" viewBox="0 0 78 64"><defs><style>.cls-1{fill:#2e2e2e;}</style></defs><title>lizard-grey</title><g id="Layer_2" data-name="Layer 2"><g id="Layer_1-2" data-name="Layer 1"><path class="cls-1" d="M26.48,5.9c11.25-4.66,34.78-8,46.87,6.76,8.24,10.06,6.94,26.9-15.56,40.41-2.53,1.54-4-.19-1.34-1.7,3.71-2.15,28.41-19.87,12.93-33.93C59,8.05,42.25,10.25,33.43,14.83c.55,3.83,4.13,2.09,6.29.61s4.52-.91,6.67-.68,6.3-.39,7.69-.41,1.91.87.26.89S48,15.75,48,16.68c-.14,1.66,1.51,2,4,2.82s11.55,3,13.21,4.55.63,1.39-.64.9-9.34-3.48-12.28-3.8c-2.4-.28-3-.3-3.63.54s1.9,4.31,3.51,6.79-.42,2.32-1,1.24-2.8-4.85-3.35-5.76c-.37-.59-.76-.95-1.3-1-.31,0-.43.23-.42,1s-.09,2.25-.18,3.29c-.07.87-.91,1.08-.91.13s0-2.32,0-3.4c0-.81-.1-1.22-.45-1.44s-.76,0-1.27.41a3.14,3.14,0,0,0-1,1.9c-.22.94-1.1,0-.65-1.12s1.56-1.54,1.68-2.37c.09-.66,0-1.22-.37-1.44s-.74.3-1.25,1a13.23,13.23,0,0,1-5.29,3.38,5,5,0,0,1-5.81-2c-.56-.88-1.27-1.33-3.32-.84a5.06,5.06,0,0,1-.72,4.76c-1.68,2.61-3.09,2.68-3.25,4.53,2.75-.93,3.49-1,4-.5a6.09,6.09,0,0,1,.4,4.3,14,14,0,0,0-.44,5.71c.27.65,2.91.71,3.64,1s.08.53-.49.48l-1.3-.1c-.61,0-.89.09-1,.26s.18.67.63,1a9.51,9.51,0,0,1,1.9,1.73c.29.46-.16.9-.53.42A15.56,15.56,0,0,0,27.51,43c-.58-.34-.81-.54-1.24-.39s-.55.57-.65,1.18-.29,3.18-.46,4a.51.51,0,0,1-1-.09c0-.48.45-2.8.52-3.28s-.17-.83-.51-.87a.85.85,0,0,0-.77.37,28.39,28.39,0,0,1-1.85,3.28c-.63.68-1.05.21-.68-.42a10.15,10.15,0,0,0,1.58-3.61c.08-1.26-.46-1.95-.15-3.13a6.9,6.9,0,0,1,1.25-2.68,3.85,3.85,0,0,0,.89-2,1.51,1.51,0,0,0-.36-1.14,3,3,0,0,0-1.77.88,24.83,24.83,0,0,0-2.47,3.65c-.42,1,.37,3,.05,4.21s-2.17,6.64-4,7.42-5.15-2.69-6.08-4.83c-.7-1.62-2.42-2.77-3-2.64s-1.31,1.55-1.25,2c.27,1.94.88,4.81,1,7.06a2.93,2.93,0,0,0,2.16,2.47,21,21,0,0,1,2.48.87c.64.3-.24.79-.68.56a8.76,8.76,0,0,0-1.9-.66,1,1,0,0,0-.73.07,1.4,1.4,0,0,0-.15,1.06c.12.53,2.84,2.41,3.34,3.15.72,1-.38.91-.92.47s-2.3-1.78-2.7-2S6.5,57.72,6.24,58s.69,3.8.44,5.09-.95,1.17-1,.24a29,29,0,0,0-.4-4c-.25-1-.9-.94-1.11-.64-.52.78-1.29,2.41-1.89,3.2s-1.3.87-.95,0c.46-1.25,2.06-4.14,2.37-4.85.21-.46,0-1-.42-1s-1,.61-1.42,1.1S.2,58.67,0,58.13s3.23-2.89,3.61-4.73c.2-1-.85-3.27-1.18-4.35S1,43.79,1.92,41.62s2.64-3.17,3-4.1a12.77,12.77,0,0,0,.16-2.21,8.22,8.22,0,0,1,.66-2.22A7.48,7.48,0,0,0,6.62,31c0-1.37-3.15-3.31-2-8.17.56-2.4,3.4-6.28,4.47-7.14.9-.71,2.13-.85,2.15-1.31s-1.13-.58-1.68-.85c-.8-.39-2.11-2.72-1.75-3.44S9.53,8.27,9.52,7.76c0-.35-.78-.18-1.55,0a17.22,17.22,0,0,0-3.6,1.65c-.79.47-1-.39-.41-.89a12.24,12.24,0,0,1,6.32-2c2.08.1,2.83,0,2.88-.48a1.68,1.68,0,0,0-.72-1.73,51.32,51.32,0,0,0-8.8-3C1.39.93,2,.06,3.24.18S12.85,3,13.49,3.3A7.15,7.15,0,0,0,15.24,4c.72.08,5.07.57,5.77.1s.32-2.71.6-3.5,1-.74,1,.11a6.65,6.65,0,0,0,.08,2.52c.34,1,1.66.88,1.85,1.82.11.57.19,1.11.69,1.15A3.68,3.68,0,0,0,26.48,5.9Z"/></g></g></svg>